<svg width="13" height="12" viewBox="0 0 13 12" fill="none" xmlns="http://www.w3.org/2000/svg">
<path d="M10.6716 6.38224C10.5941 7.20589 10.2794 7.99082 9.76444 8.6452C9.24944 9.29958 8.55538 9.79633 7.76348 10.0773C6.97159 10.3583 6.11461 10.412 5.29282 10.232C4.47103 10.0519 3.71842 9.64573 3.12306 9.06084C2.52769 8.47595 2.1142 7.73658 1.93096 6.92925C1.74772 6.12192 1.80231 5.28002 2.08835 4.50206C2.37439 3.7241 2.88004 3.04225 3.54614 2.53631C4.21224 2.03037 5.01123 1.72126 5.84963 1.64514C5.35877 2.29753 5.12257 3.10133 5.18398 3.91034C5.24539 4.71936 5.60034 5.47985 6.18426 6.0535C6.76818 6.62714 7.5423 6.97584 8.3658 7.03617C9.18931 7.0965 10.0075 6.86446 10.6716 6.38224Z" stroke="#BABABA" stroke-width="0.967742" stroke-linecap="round" stroke-linejoin="round"/>
</svg>
