<svg width="13" height="12" viewBox="0 0 13 12" fill="none" xmlns="http://www.w3.org/2000/svg">
<g clip-path="url(#clip0_307_760)">
<path d="M6.2537 8.41928C7.61381 8.41928 8.71639 7.33609 8.71639 5.99992C8.71639 4.66375 7.61381 3.58057 6.2537 3.58057C4.8936 3.58057 3.79102 4.66375 3.79102 5.99992C3.79102 7.33609 4.8936 8.41928 6.2537 8.41928Z" stroke="#F0F2F5" stroke-width="0.967742" stroke-linecap="round" stroke-linejoin="round"/>
<path d="M6.25391 0.677368V1.64511" stroke="#F0F2F5" stroke-width="0.967742" stroke-linecap="round" stroke-linejoin="round"/>
<path d="M6.25391 10.3547V11.3225" stroke="#F0F2F5" stroke-width="0.967742" stroke-linecap="round" stroke-linejoin="round"/>
<path d="M2.42139 2.23547L3.12079 2.92257" stroke="#F0F2F5" stroke-width="0.967742" stroke-linecap="round" stroke-linejoin="round"/>
<path d="M9.38672 9.07739L10.0861 9.76449" stroke="#F0F2F5" stroke-width="0.967742" stroke-linecap="round" stroke-linejoin="round"/>
<path d="M0.835938 6H1.82101" stroke="#F0F2F5" stroke-width="0.967742" stroke-linecap="round" stroke-linejoin="round"/>
<path d="M10.6865 6H11.6716" stroke="#F0F2F5" stroke-width="0.967742" stroke-linecap="round" stroke-linejoin="round"/>
<path d="M2.42139 9.76449L3.12079 9.07739" stroke="#F0F2F5" stroke-width="0.967742" stroke-linecap="round" stroke-linejoin="round"/>
<path d="M9.38672 2.92257L10.0861 2.23547" stroke="#F0F2F5" stroke-width="0.967742" stroke-linecap="round" stroke-linejoin="round"/>
</g>
<defs>
<clipPath id="clip0_307_760">
<rect width="11.8209" height="11.6129" fill="white" transform="translate(0.343262 0.193604)"/>
</clipPath>
</defs>
</svg>
